<svg id="Group_1_copy" data-name="Group 1 copy" xmlns="http://www.w3.org/2000/svg" width="1000" height="212" viewBox="0 0 1000 212">
  <defs>
    <style>
      .cls-1 {
        fill: #fff;
        fill-rule: evenodd;
      }
    </style>
  </defs>
  <path id="gnt" class="cls-1" d="M53.2,27.9a50.588,50.588,0,0,0-27.273,7.6A52.722,52.722,0,0,0,6.623,57.22Q-0.47,71.341-.468,90.016t7.091,32.9a53.3,53.3,0,0,0,19.309,21.937A50.032,50.032,0,0,0,53.2,152.569q12.871,0,22.473-5.322a41.315,41.315,0,0,0,15.055-13.792v17.159q0,14.548-6.873,21.177t-18.436,6.624q-9.6,0-16.145-4.018a17.585,17.585,0,0,1-8.291-10.969H4.114q2.4,21.717,19.2,34.426T67.168,210.56q20.291,0,33.927-8.036a50.623,50.623,0,0,0,20.291-21.611,67.935,67.935,0,0,0,6.655-30.3V29.636H90.732V46.794A38.522,38.522,0,0,0,75.786,33.111Q66.076,27.9,53.2,27.9h0ZM90.732,90.233q0,13.9-7.745,21.937a25.216,25.216,0,0,1-18.873,8.036,25.058,25.058,0,0,1-18.873-8.144q-7.747-8.145-7.745-22.046t7.745-21.828A25.387,25.387,0,0,1,64.114,60.26,25.229,25.229,0,0,1,82.986,68.3q7.742,8.038,7.745,21.937h0Zm138.545-61.9a48.748,48.748,0,0,0-21.6,4.67A39.337,39.337,0,0,0,192.4,45.708V29.636H155.1v121.2H192.4V85.021q0-12.161,6.327-18.9t17.018-6.733q10.688,0,17.019,6.733t6.327,18.9v65.81h37.091V80.025q0-24.109-12.764-37.9T229.277,28.332h0Zm127.417,91.006q-6.11,0-8.727-2.39t-2.618-7.819V60.477h24.436V29.636H345.349V0.1H308.04V29.636H293.2V60.477H308.04V108.7q0,22.373,11.345,32.254t31.637,9.882H370V119.338H356.694Z"/>
  <path id="games_and_tech" data-name="games and tech" class="cls-1" d="M463.047,0.133A39.665,39.665,0,0,0,444.14,4.857,43.677,43.677,0,0,0,429.1,18.151a48.111,48.111,0,0,0-8.2,19.908,43.022,43.022,0,0,0-.814,8.233,32.9,32.9,0,0,0,3.728,15.926,26.069,26.069,0,0,0,10.368,10.595,30.843,30.843,0,0,0,15.315,3.712,36.071,36.071,0,0,0,17.551-4.319,39.2,39.2,0,0,0,12.808-10.8l-2.71,15.521q-2.034,11.47-9.623,17.816a26.843,26.843,0,0,1-17.755,6.343q-8.944,0-14.57-4.116a15.24,15.24,0,0,1-6.438-10.865H416.424q-0.273,11.742,8.268,18.693t23.176,6.951a42.641,42.641,0,0,0,19.516-4.454,40.266,40.266,0,0,0,14.57-12.35,42.5,42.5,0,0,0,7.522-18.018L502.894,1.348H490.425l-2.44,13.5a21,21,0,0,0-8.809-10.527Q472.671,0.135,463.047.133h0Zm20.872,38.061a35.128,35.128,0,0,1-6.031,14.644,31.277,31.277,0,0,1-10.843,9.583,28.046,28.046,0,0,1-13.214,3.307q-9.081,0-14.909-5.736T433.1,44.267a33.065,33.065,0,0,1,.542-6.208A35.08,35.08,0,0,1,439.6,23.482a30.288,30.288,0,0,1,10.775-9.448A28.529,28.529,0,0,1,463.589,10.8a20.6,20.6,0,0,1,14.977,5.736q5.9,5.738,5.9,15.589a32.44,32.44,0,0,1-.542,6.074h0Zm25.887-.135a43.1,43.1,0,0,0-.813,8.233,33.428,33.428,0,0,0,3.659,15.926,25.643,25.643,0,0,0,10.3,10.595,30.84,30.84,0,0,0,15.315,3.712,36.945,36.945,0,0,0,17.619-4.251,38.341,38.341,0,0,0,12.876-10.73L566.188,75.31h12.469L591.8,1.348H579.334l-2.439,13.5a21.956,21.956,0,0,0-8.81-10.527Q561.713,0.135,551.957.133A39.663,39.663,0,0,0,533.05,4.857a43.668,43.668,0,0,0-15.044,13.294,48.1,48.1,0,0,0-8.2,19.908h0Zm63.023,0.135A35.141,35.141,0,0,1,566.8,52.838a31.3,31.3,0,0,1-10.843,9.583,28.05,28.05,0,0,1-13.215,3.307q-9.081,0-14.908-5.736T522,44.267a33.065,33.065,0,0,1,.542-6.208,35.081,35.081,0,0,1,5.964-14.576,30.285,30.285,0,0,1,10.774-9.448A28.536,28.536,0,0,1,552.5,10.8a20.6,20.6,0,0,1,14.976,5.736q5.9,5.738,5.9,15.589a32.44,32.44,0,0,1-.542,6.074h0ZM699.552,0a34.5,34.5,0,0,0-16.739,4.319,32.151,32.151,0,0,0-12.536,12.147,19.764,19.764,0,0,0-8.471-12.282Q655.367,0,646.016,0a33.79,33.79,0,0,0-14.231,3.1A30.61,30.61,0,0,0,620.4,12.01l1.9-10.662H609.965L596.818,75.31h12.333l7.319-41.03v0.27Q618.5,22.944,625.28,16.8a23.557,23.557,0,0,1,16.4-6.141q8,0,12.4,4.251t4.4,12.349a36.147,36.147,0,0,1-.542,6.209l-7.454,41.84h12.2l7.725-42.92q2.44-10.527,9.013-16.128a23.541,23.541,0,0,1,15.79-5.6q7.995,0,12.4,4.251t4.4,12.485a32.441,32.441,0,0,1-.542,6.074l-7.455,41.84h12.2l7.726-43.594a39.355,39.355,0,0,0,.677-7.693q0-11.742-6.844-17.883T699.552,0h0Zm79.557,0.135a43.139,43.139,0,0,0-19.855,4.656,42.641,42.641,0,0,0-15.383,13.294,48.229,48.229,0,0,0-8.268,20.11,46.726,46.726,0,0,0-.813,8.368q0,13.9,8.471,21.932t22.431,8.031a41.39,41.39,0,0,0,23.379-6.681A40.888,40.888,0,0,0,804.047,52.5H790.765a24.23,24.23,0,0,1-9.148,9.92,26.213,26.213,0,0,1-14.028,3.712q-9.081,0-14.705-5.2t-5.625-14.509q0-1.215.271-3.914h59.364a47.39,47.39,0,0,0,1.762-7.288,42.85,42.85,0,0,0,.677-6.883A29.466,29.466,0,0,0,805.742,13.7,24.847,24.847,0,0,0,795.306,3.71a34.548,34.548,0,0,0-16.2-3.577h0ZM796.187,33.6h-47.03q2.709-10.8,10.436-16.938a26.987,26.987,0,0,1,17.212-6.141q8.81,0,14.3,4.724t5.489,13.362a33.667,33.667,0,0,1-.406,4.994h0Zm45,42.92A43.07,43.07,0,0,0,856.5,73.96a24.105,24.105,0,0,0,10.639-7.423A17.686,17.686,0,0,0,871,55.2a15.806,15.806,0,0,0-2.982-9.852,21.817,21.817,0,0,0-7.183-6.141,110.007,110.007,0,0,0-11.114-4.926,63.7,63.7,0,0,1-12.2-5.939,8.525,8.525,0,0,1-3.93-7.423,9.241,9.241,0,0,1,4.269-7.963,18.694,18.694,0,0,1,10.91-2.969q6.775,0,10.911,3.172a10.24,10.24,0,0,1,4.133,8.57l-0.135,1.62h11.791a20.522,20.522,0,0,0,.136-2.7A17.9,17.9,0,0,0,868.29,5.8q-7.319-5.669-18.7-5.669a38.589,38.589,0,0,0-14.705,2.632,22.861,22.861,0,0,0-10.029,7.491,18.139,18.139,0,0,0-3.592,11.067,16.831,16.831,0,0,0,3.117,10.46,22.031,22.031,0,0,0,7.59,6.411,106.552,106.552,0,0,0,11.385,4.859,59.44,59.44,0,0,1,11.656,5.534A8.046,8.046,0,0,1,858.8,55.6a9.114,9.114,0,0,1-4.676,8.166q-4.675,2.9-12.266,2.9t-11.588-3.644a10.726,10.726,0,0,1-3.456-9.448H814.755a17.009,17.009,0,0,0-.136,2.564,17.554,17.554,0,0,0,7.454,14.846q7.452,5.536,19.11,5.534h0ZM420.9,173.548a43.017,43.017,0,0,0-.814,8.233,33.417,33.417,0,0,0,3.66,15.926,25.636,25.636,0,0,0,10.3,10.6,30.851,30.851,0,0,0,15.315,3.711,36.953,36.953,0,0,0,17.62-4.251,38.335,38.335,0,0,0,12.875-10.73L477.278,210.8h12.469l13.147-73.961H490.425l-2.44,13.5a21.949,21.949,0,0,0-8.809-10.527q-6.372-4.182-16.129-4.184a39.66,39.66,0,0,0-18.907,4.724A43.669,43.669,0,0,0,429.1,153.64a48.108,48.108,0,0,0-8.2,19.908h0Zm63.022,0.135a35.125,35.125,0,0,1-6.031,14.643,31.28,31.28,0,0,1-10.843,9.583,28.044,28.044,0,0,1-13.214,3.307q-9.081,0-14.909-5.736T433.1,179.756a33.057,33.057,0,0,1,.542-6.208,35.084,35.084,0,0,1,5.963-14.577,30.3,30.3,0,0,1,10.775-9.448,28.535,28.535,0,0,1,13.214-3.239,20.6,20.6,0,0,1,14.977,5.736q5.9,5.739,5.9,15.589a32.445,32.445,0,0,1-.542,6.074h0Zm73.6-38.2a35.009,35.009,0,0,0-14.5,3.1,30.367,30.367,0,0,0-11.521,8.908l1.9-10.662H521.055L507.909,210.8h12.333l7.319-41.164V169.9q2.033-11.605,8.877-17.68a24.136,24.136,0,0,1,16.6-6.074q8.131,0,12.672,4.319t4.541,12.552a31.676,31.676,0,0,1-.543,5.939L562.257,210.8h12.2L582.18,167.2a39.269,39.269,0,0,0,.678-7.693q0-11.742-6.912-17.883t-18.432-6.141h0Zm36.322,38.061a43.1,43.1,0,0,0-.813,8.233,32.912,32.912,0,0,0,3.727,15.926,26.071,26.071,0,0,0,10.368,10.6,30.852,30.852,0,0,0,15.316,3.711,36.949,36.949,0,0,0,17.619-4.251,36.36,36.36,0,0,0,12.74-10.865l-2.575,13.9h12.469l17.755-99.875H667.973l-6.913,39.14a22.6,22.6,0,0,0-9.622-10.46,29.682,29.682,0,0,0-15.316-3.981,40.054,40.054,0,0,0-18.974,4.724,43.468,43.468,0,0,0-15.112,13.294,48.109,48.109,0,0,0-8.2,19.908h0Zm63.023,0.135a35.125,35.125,0,0,1-6.031,14.643,31.289,31.289,0,0,1-10.843,9.583,28.044,28.044,0,0,1-13.214,3.307q-9.082,0-14.909-5.736t-5.828-15.724a33.057,33.057,0,0,1,.542-6.208,35.1,35.1,0,0,1,5.964-14.577,30.3,30.3,0,0,1,10.775-9.448,28.535,28.535,0,0,1,13.214-3.239,20.6,20.6,0,0,1,14.976,5.736q5.9,5.739,5.9,15.589a32.445,32.445,0,0,1-.542,6.074h0Zm88.1-26.724h19.381l1.762-10.122H746.853l3.252-18.626H737.636l-3.252,18.626h-9.623L723,146.959h9.487l-7.725,43.594a30.8,30.8,0,0,0-.542,5.8q0,7.694,4.4,11.067t13.215,3.374h11.114l1.9-10.392h-9.081q-4.745,0-6.844-1.485t-2.1-4.858a18.194,18.194,0,0,1,.407-3.51Zm65.6-11.337a43.143,43.143,0,0,0-19.856,4.656,42.64,42.64,0,0,0-15.383,13.294,48.222,48.222,0,0,0-8.267,20.111,46.719,46.719,0,0,0-.813,8.367q0,13.9,8.471,21.933t22.43,8.03a41.4,41.4,0,0,0,23.38-6.681,40.9,40.9,0,0,0,14.976-17.343H822.209a24.232,24.232,0,0,1-9.149,9.92,26.206,26.206,0,0,1-14.027,3.712q-9.083,0-14.706-5.2T778.7,181.916q0-1.215.271-3.915h59.363a47.241,47.241,0,0,0,1.762-7.288,42.855,42.855,0,0,0,.678-6.883,29.468,29.468,0,0,0-3.592-14.644,24.837,24.837,0,0,0-10.436-9.987,34.546,34.546,0,0,0-16.2-3.577h0Zm17.077,33.472H780.6q2.711-10.8,10.436-16.939a26.991,26.991,0,0,1,17.213-6.141q8.808,0,14.3,4.724t5.489,13.362a33.682,33.682,0,0,1-.407,4.994h0Zm20.737,4.589a48.089,48.089,0,0,0-.814,8.637q0,13.767,8.2,21.73t22.16,7.963A41.333,41.333,0,0,0,901.5,205.2a40.822,40.822,0,0,0,15.045-18.153H903.257a24.539,24.539,0,0,1-9.284,10.8,26.109,26.109,0,0,1-14.163,3.779q-8.811,0-14.095-5.332t-5.286-15.183a50.825,50.825,0,0,1,.678-7.423q2.3-13.227,10.1-20.448a26.141,26.141,0,0,1,18.365-7.221q8.132,0,12.943,3.914A15.09,15.09,0,0,1,908,160.591h13.282q-0.813-11.742-8.471-18.356t-21.346-6.613a41.947,41.947,0,0,0-19.652,4.724,43.1,43.1,0,0,0-15.248,13.294,48.2,48.2,0,0,0-8.2,20.043h0Zm127.942-38.2a36.4,36.4,0,0,0-14.976,3.172,31.184,31.184,0,0,0-11.723,8.84l6.5-36.576H943.782L926.027,210.8H938.36l7.319-41.164V169.9q2.033-11.605,8.877-17.68a24.138,24.138,0,0,1,16.6-6.074q8.133,0,12.673,4.319t4.54,12.552a31.677,31.677,0,0,1-.542,5.939L980.375,210.8h12.2L1000.3,167.2a41.556,41.556,0,0,0,.68-7.828q0-11.605-6.78-17.748t-17.891-6.141h0Z"/>
</svg>
